# xmcd CD database file
#
# Track frame offsets:
#	183
#	13245
#	35898
#	49875
#	61533
#	77940
#	86810
#	105810
#	120538
#	135283
#	152943
#	169000
#	182210
#	191878
#	201965
#	215173
#
# Disc length: 3034 seconds
#
# Revision: 0
# Processed by: cddbd v1.5.2PL0 Copyright (c) Steve Scherf et al.
# Submitted via: CDex 1.51
#
DISCID=e30bd810
DTITLE=Ray Charles - Unchained
DYEAR=1993
DGENRE=Blues
TTITLE0=I got a woman
TTITLE1=What'd i say
TTITLE2=One mint julep
TTITLE3=Halellujah i love her so
TTITLE4=Georgia on my mind
TTITLE5=Hit the road jack
TTITLE6=I can't stop loving you
TTITLE7=Born to lose
TTITLE8=You don't know me
TTITLE9=Careless love
TTITLE10=Your cheating heart
TTITLE11=Take these chains from my heart
TTITLE12=Busted
TTITLE13=Sticks and Stones
TTITLE14=Crying time
TTITLE15=Yesterday
EXTD=YEAR: 1993
EXTT0=
EXTT1=
EXTT2=
EXTT3=
EXTT4=
EXTT5=
EXTT6=
EXTT7=
EXTT8=
EXTT9=
EXTT10=
EXTT11=
EXTT12=
EXTT13=
EXTT14=
EXTT15=
PLAYORDER=
